# xmcd
#
# Track frame offsets:
#	150
#	52833
#	87394
#	112803
#	151731
#	207957
#	239294
#	286353
#
# Disc length: 4335 seconds
#
# Revision: 1
# Processed by: cddbd v1.5.2PL0 Copyright (c) Steve Scherf et al.
# Submitted via: EZCDAudioConverter 1.3.4.1
#
DISCID=5e10ed08
DTITLE=èÄ"Y¨?Y¨ - NHKSO - Schumann: Symphonies No. 1 "Fruehling" and No. 2
DYEAR=1900
DGENRE=Blues
TTITLE0=Symphony No. 1 in B-flat "Fruehling", op.38/1Andante un poco maestoso
TTITLE1=2Larghetto
TTITLE2=3Scherzo. Molto vivace
TTITLE3=4Allegro animato e grazioso
TTITLE4=Symphony No. 2 in C, op.61/1Sostenuto assai
TTITLE5=2Scherzo. Allegro vivace
TTITLE6=3Adagio espressivo
TTITLE7=4Allegro molto vivace
EXTD=
EXTT0=
EXTT1=
EXTT2=
EXTT3=
EXTT4=
EXTT5=
EXTT6=
EXTT7=
PLAYORDER=
